G04 #@! TF.FileFunction,Soldermask,Bot*
%FSLAX46Y46*%
G04 Gerber Fmt 4.6, Leading zero omitted, Abs format (unit mm)*
G04 Created by KiCad (PCBNEW 4.0.2-stable) date 2016년 11월 18일 금요일 PM 04:17:21*
%MOMM*%
G01*
G04 APERTURE LIST*
%ADD10C,0.100000*%
%ADD11C,3.400000*%
%ADD12R,2.300000X2.300000*%
%ADD13C,2.300000*%
%ADD14C,2.800000*%
%ADD15R,2.800000X2.800000*%
%ADD16R,2.900000X2.900000*%
%ADD17C,2.900000*%
%ADD18C,2.398980*%
%ADD19O,2.000000X2.000000*%
%ADD20R,1.800000X1.800000*%
%ADD21C,1.800000*%
%ADD22R,2.398980X2.398980*%
%ADD23R,2.400000X2.400000*%
%ADD24C,2.400000*%
%ADD25O,2.899360X1.901140*%
%ADD26C,4.199840*%
G04 APERTURE END LIST*
D10*
D11*
X64500000Y-130500000D03*
X64500000Y-66500000D03*
X30000000Y-97600000D03*
X269700000Y-130250000D03*
X269700000Y-63650000D03*
X250950000Y-131600000D03*
X226950000Y-131600000D03*
X202950000Y-131600000D03*
X178950000Y-131600000D03*
X154950000Y-131600000D03*
X130950000Y-131600000D03*
X106950000Y-131600000D03*
X82950000Y-131600000D03*
X251450000Y-62600000D03*
X227450000Y-62600000D03*
X203450000Y-62600000D03*
X179450000Y-62600000D03*
X155450000Y-62600000D03*
X131450000Y-62600000D03*
X107450000Y-62600000D03*
X83450000Y-62600000D03*
D12*
X38200000Y-108600000D03*
D13*
X38200000Y-106100000D03*
X38200000Y-103600000D03*
D12*
X38200000Y-71600000D03*
D13*
X38200000Y-69100000D03*
X38200000Y-66600000D03*
D14*
X32200000Y-117100000D03*
D15*
X32200000Y-113600000D03*
D16*
X32200000Y-122600000D03*
D17*
X32200000Y-127600000D03*
D18*
X262200000Y-64100640D03*
X262200000Y-69101900D03*
D19*
X54470000Y-119600000D03*
X54470000Y-117060000D03*
X54470000Y-114520000D03*
X54470000Y-111980000D03*
X54470000Y-109440000D03*
X54470000Y-106900000D03*
X54470000Y-104360000D03*
X54470000Y-101820000D03*
X46850000Y-101820000D03*
X46850000Y-104360000D03*
X46850000Y-106900000D03*
X46850000Y-109440000D03*
X46850000Y-111980000D03*
X46850000Y-114520000D03*
X46850000Y-117060000D03*
X46850000Y-119600000D03*
X54470000Y-87600000D03*
X54470000Y-85060000D03*
X54470000Y-82520000D03*
X54470000Y-79980000D03*
X54470000Y-77440000D03*
X54470000Y-74900000D03*
X54470000Y-72360000D03*
X54470000Y-69820000D03*
X46850000Y-69820000D03*
X46850000Y-72360000D03*
X46850000Y-74900000D03*
X46850000Y-77440000D03*
X46850000Y-79980000D03*
X46850000Y-82520000D03*
X46850000Y-85060000D03*
X46850000Y-87600000D03*
D20*
X47470000Y-92600000D03*
D21*
X52470000Y-92600000D03*
D20*
X47470000Y-124600000D03*
D21*
X52470000Y-124600000D03*
D18*
X258010000Y-85600000D03*
D22*
X254200000Y-85600000D03*
D18*
X234010000Y-85600000D03*
D22*
X230200000Y-85600000D03*
D18*
X210010000Y-85600000D03*
D22*
X206200000Y-85600000D03*
D18*
X186010000Y-85600000D03*
D22*
X182200000Y-85600000D03*
D18*
X162010000Y-85600000D03*
D22*
X158200000Y-85600000D03*
D18*
X138010000Y-85600000D03*
D22*
X134200000Y-85600000D03*
D18*
X114010000Y-85600000D03*
D22*
X110200000Y-85600000D03*
D18*
X90010000Y-85600000D03*
D22*
X86200000Y-85600000D03*
D18*
X90010000Y-108600000D03*
D22*
X86200000Y-108600000D03*
D18*
X113010000Y-108600000D03*
D22*
X109200000Y-108600000D03*
D18*
X137010000Y-108600000D03*
D22*
X133200000Y-108600000D03*
D18*
X161010000Y-108600000D03*
D22*
X157200000Y-108600000D03*
D18*
X185010000Y-108600000D03*
D22*
X181200000Y-108600000D03*
D18*
X209010000Y-108600000D03*
D22*
X205200000Y-108600000D03*
D18*
X234010000Y-108600000D03*
D22*
X230200000Y-108600000D03*
D18*
X258010000Y-108600000D03*
D22*
X254200000Y-108600000D03*
D23*
X257200000Y-67600000D03*
D24*
X257200000Y-65060000D03*
D23*
X233200000Y-67600000D03*
D24*
X233200000Y-65060000D03*
D23*
X209200000Y-67600000D03*
D24*
X209200000Y-65060000D03*
D23*
X185200000Y-67600000D03*
D24*
X185200000Y-65060000D03*
D23*
X161200000Y-67600000D03*
D24*
X161200000Y-65060000D03*
D23*
X137200000Y-67600000D03*
D24*
X137200000Y-65060000D03*
D23*
X113200000Y-67600000D03*
D24*
X113200000Y-65060000D03*
D23*
X89200000Y-67600000D03*
D24*
X89200000Y-65060000D03*
D23*
X89200000Y-126600000D03*
D24*
X89200000Y-129140000D03*
D23*
X113200000Y-126600000D03*
D24*
X113200000Y-129140000D03*
D23*
X137200000Y-126600000D03*
D24*
X137200000Y-129140000D03*
D23*
X161200000Y-126600000D03*
D24*
X161200000Y-129140000D03*
D23*
X185200000Y-126600000D03*
D24*
X185200000Y-129140000D03*
D23*
X209200000Y-126600000D03*
D24*
X209200000Y-129140000D03*
D23*
X233200000Y-126600000D03*
D24*
X233200000Y-129140000D03*
D23*
X257200000Y-126600000D03*
D24*
X257200000Y-129140000D03*
D14*
X249700000Y-67600000D03*
D15*
X253200000Y-67600000D03*
D14*
X225700000Y-67600000D03*
D15*
X229200000Y-67600000D03*
D14*
X201700000Y-67600000D03*
D15*
X205200000Y-67600000D03*
D14*
X177700000Y-67600000D03*
D15*
X181200000Y-67600000D03*
D14*
X153700000Y-67600000D03*
D15*
X157200000Y-67600000D03*
D14*
X129700000Y-67600000D03*
D15*
X133200000Y-67600000D03*
D14*
X105700000Y-67600000D03*
D15*
X109200000Y-67600000D03*
D14*
X81700000Y-67600000D03*
D15*
X85200000Y-67600000D03*
D14*
X84700000Y-126600000D03*
D15*
X81200000Y-126600000D03*
D14*
X108700000Y-126600000D03*
D15*
X105200000Y-126600000D03*
D14*
X132700000Y-126600000D03*
D15*
X129200000Y-126600000D03*
D14*
X156700000Y-126600000D03*
D15*
X153200000Y-126600000D03*
D14*
X180700000Y-126600000D03*
D15*
X177200000Y-126600000D03*
D14*
X204700000Y-126600000D03*
D15*
X201200000Y-126600000D03*
D14*
X228700000Y-126600000D03*
D15*
X225200000Y-126600000D03*
D14*
X252700000Y-126600000D03*
D15*
X249200000Y-126600000D03*
D14*
X32200000Y-80100000D03*
D15*
X32200000Y-76600000D03*
D16*
X32200000Y-85600000D03*
D17*
X32200000Y-90600000D03*
D18*
X238200000Y-64100640D03*
X238200000Y-69101900D03*
X214200000Y-64100640D03*
X214200000Y-69101900D03*
X190200000Y-64100640D03*
X190200000Y-69101900D03*
X166200000Y-64100640D03*
X166200000Y-69101900D03*
X142200000Y-64100640D03*
X142200000Y-69101900D03*
X118200000Y-64100640D03*
X118200000Y-69101900D03*
X94200000Y-64100640D03*
X94200000Y-69101900D03*
X245700640Y-85600000D03*
X250701900Y-85600000D03*
X221700640Y-85600000D03*
X226701900Y-85600000D03*
X197700640Y-85600000D03*
X202701900Y-85600000D03*
X173700640Y-85600000D03*
X178701900Y-85600000D03*
X149700640Y-85600000D03*
X154701900Y-85600000D03*
X125700640Y-85600000D03*
X130701900Y-85600000D03*
X101700640Y-85600000D03*
X106701900Y-85600000D03*
X77700640Y-85600000D03*
X82701900Y-85600000D03*
X94200000Y-130099360D03*
X94200000Y-125098100D03*
X118200000Y-130099360D03*
X118200000Y-125098100D03*
X142200000Y-130099360D03*
X142200000Y-125098100D03*
X166200000Y-130099360D03*
X166200000Y-125098100D03*
X191200000Y-130099360D03*
X191200000Y-125098100D03*
X214200000Y-130099360D03*
X214200000Y-125098100D03*
X238200000Y-130099360D03*
X238200000Y-125098100D03*
X262200000Y-130099360D03*
X262200000Y-125098100D03*
X77700640Y-108600000D03*
X82701900Y-108600000D03*
X100700640Y-108600000D03*
X105701900Y-108600000D03*
X124700640Y-108600000D03*
X129701900Y-108600000D03*
X148700640Y-108600000D03*
X153701900Y-108600000D03*
X172700640Y-108600000D03*
X177701900Y-108600000D03*
X196700640Y-108600000D03*
X201701900Y-108600000D03*
X221700640Y-108600000D03*
X226701900Y-108600000D03*
X245450640Y-108850000D03*
X250451900Y-108850000D03*
D25*
X244200000Y-78600000D03*
X244200000Y-76060000D03*
X244200000Y-81140000D03*
D26*
X260964000Y-78600000D03*
D25*
X220200000Y-78600000D03*
X220200000Y-76060000D03*
X220200000Y-81140000D03*
D26*
X236964000Y-78600000D03*
D25*
X196200000Y-78600000D03*
X196200000Y-76060000D03*
X196200000Y-81140000D03*
D26*
X212964000Y-78600000D03*
D25*
X172200000Y-78600000D03*
X172200000Y-76060000D03*
X172200000Y-81140000D03*
D26*
X188964000Y-78600000D03*
D25*
X148200000Y-78600000D03*
X148200000Y-76060000D03*
X148200000Y-81140000D03*
D26*
X164964000Y-78600000D03*
D25*
X124200000Y-78600000D03*
X124200000Y-76060000D03*
X124200000Y-81140000D03*
D26*
X140964000Y-78600000D03*
D25*
X100200000Y-78600000D03*
X100200000Y-76060000D03*
X100200000Y-81140000D03*
D26*
X116964000Y-78600000D03*
D25*
X76200000Y-78600000D03*
X76200000Y-76060000D03*
X76200000Y-81140000D03*
D26*
X92964000Y-78600000D03*
D25*
X76200000Y-115600000D03*
X76200000Y-113060000D03*
X76200000Y-118140000D03*
D26*
X92964000Y-115600000D03*
D25*
X100200000Y-115600000D03*
X100200000Y-113060000D03*
X100200000Y-118140000D03*
D26*
X116964000Y-115600000D03*
D25*
X124200000Y-115600000D03*
X124200000Y-113060000D03*
X124200000Y-118140000D03*
D26*
X140964000Y-115600000D03*
D25*
X148200000Y-115600000D03*
X148200000Y-113060000D03*
X148200000Y-118140000D03*
D26*
X164964000Y-115600000D03*
D25*
X172200000Y-115600000D03*
X172200000Y-113060000D03*
X172200000Y-118140000D03*
D26*
X188964000Y-115600000D03*
D25*
X196200000Y-115600000D03*
X196200000Y-113060000D03*
X196200000Y-118140000D03*
D26*
X212964000Y-115600000D03*
D25*
X220200000Y-115600000D03*
X220200000Y-113060000D03*
X220200000Y-118140000D03*
D26*
X236964000Y-115600000D03*
D25*
X244200000Y-115600000D03*
X244200000Y-113060000D03*
X244200000Y-118140000D03*
D26*
X260964000Y-115600000D03*
D11*
X269700000Y-96850000D03*
M02*
