M48
;DRILL file {KiCad 4.0.2-stable} date 2016년 11월 18일 금요일 PM 04:16:50
;FORMAT={-:-/ absolute / metric / decimal}
FMAT,2
METRIC,TZ
T1C0.635
T2C0.800
T3C0.900
T4C1.001
T5C1.200
T6C1.270
T7C1.300
T8C3.000
T9C3.800
%
G90
G05
M71
T1
X44.7Y-81.1
X46.95Y-122.1
X51.95Y-85.1
T2
X46.85Y-69.82
X46.85Y-72.36
X46.85Y-74.9
X46.85Y-77.44
X46.85Y-79.98
X46.85Y-82.52
X46.85Y-85.06
X46.85Y-87.6
X46.85Y-101.82
X46.85Y-104.36
X46.85Y-106.9
X46.85Y-109.44
X46.85Y-111.98
X46.85Y-114.52
X46.85Y-117.06
X46.85Y-119.6
X54.47Y-69.82
X54.47Y-72.36
X54.47Y-74.9
X54.47Y-77.44
X54.47Y-79.98
X54.47Y-82.52
X54.47Y-85.06
X54.47Y-87.6
X54.47Y-101.82
X54.47Y-104.36
X54.47Y-106.9
X54.47Y-109.44
X54.47Y-111.98
X54.47Y-114.52
X54.47Y-117.06
X54.47Y-119.6
T3
X47.47Y-92.6
X47.47Y-124.6
X52.47Y-92.6
X52.47Y-124.6
T4
X76.2Y-76.06
X76.2Y-78.6
X76.2Y-81.14
X76.2Y-113.06
X76.2Y-115.6
X76.2Y-118.14
X77.701Y-85.6
X77.701Y-108.6
X82.702Y-85.6
X82.702Y-108.6
X86.2Y-85.6
X86.2Y-108.6
X89.2Y-65.06
X89.2Y-67.6
X89.2Y-126.6
X89.2Y-129.14
X94.2Y-64.101
X94.2Y-69.102
X94.2Y-125.098
X94.2Y-130.099
X100.2Y-76.06
X100.2Y-78.6
X100.2Y-81.14
X100.2Y-113.06
X100.2Y-115.6
X100.2Y-118.14
X100.701Y-108.6
X101.701Y-85.6
X105.702Y-108.6
X106.702Y-85.6
X109.2Y-108.6
X110.2Y-85.6
X113.2Y-65.06
X113.2Y-67.6
X113.2Y-126.6
X113.2Y-129.14
X118.2Y-64.101
X118.2Y-69.102
X118.2Y-125.098
X118.2Y-130.099
X124.2Y-76.06
X124.2Y-78.6
X124.2Y-81.14
X124.2Y-113.06
X124.2Y-115.6
X124.2Y-118.14
X124.701Y-108.6
X125.701Y-85.6
X129.702Y-108.6
X130.702Y-85.6
X133.2Y-108.6
X134.2Y-85.6
X137.2Y-65.06
X137.2Y-67.6
X137.2Y-126.6
X137.2Y-129.14
X142.2Y-64.101
X142.2Y-69.102
X142.2Y-125.098
X142.2Y-130.099
X148.2Y-76.06
X148.2Y-78.6
X148.2Y-81.14
X148.2Y-113.06
X148.2Y-115.6
X148.2Y-118.14
X148.701Y-108.6
X149.701Y-85.6
X153.702Y-108.6
X154.702Y-85.6
X157.2Y-108.6
X158.2Y-85.6
X161.2Y-65.06
X161.2Y-67.6
X161.2Y-126.6
X161.2Y-129.14
X166.2Y-64.101
X166.2Y-69.102
X166.2Y-125.098
X166.2Y-130.099
X172.2Y-76.06
X172.2Y-78.6
X172.2Y-81.14
X172.2Y-113.06
X172.2Y-115.6
X172.2Y-118.14
X172.701Y-108.6
X173.701Y-85.6
X177.702Y-108.6
X178.702Y-85.6
X181.2Y-108.6
X182.2Y-85.6
X185.2Y-65.06
X185.2Y-67.6
X185.2Y-126.6
X185.2Y-129.14
X190.2Y-64.101
X190.2Y-69.102
X191.2Y-125.098
X191.2Y-130.099
X196.2Y-76.06
X196.2Y-78.6
X196.2Y-81.14
X196.2Y-113.06
X196.2Y-115.6
X196.2Y-118.14
X196.701Y-108.6
X197.701Y-85.6
X201.702Y-108.6
X202.702Y-85.6
X205.2Y-108.6
X206.2Y-85.6
X209.2Y-65.06
X209.2Y-67.6
X209.2Y-126.6
X209.2Y-129.14
X214.2Y-64.101
X214.2Y-69.102
X214.2Y-125.098
X214.2Y-130.099
X220.2Y-76.06
X220.2Y-78.6
X220.2Y-81.14
X220.2Y-113.06
X220.2Y-115.6
X220.2Y-118.14
X221.701Y-85.6
X221.701Y-108.6
X226.702Y-85.6
X226.702Y-108.6
X230.2Y-85.6
X230.2Y-108.6
X233.2Y-65.06
X233.2Y-67.6
X233.2Y-126.6
X233.2Y-129.14
X238.2Y-64.101
X238.2Y-69.102
X238.2Y-125.098
X238.2Y-130.099
X244.2Y-76.06
X244.2Y-78.6
X244.2Y-81.14
X244.2Y-113.06
X244.2Y-115.6
X244.2Y-118.14
X245.451Y-108.85
X245.701Y-85.6
X250.452Y-108.85
X250.702Y-85.6
X254.2Y-85.6
X254.2Y-108.6
X257.2Y-65.06
X257.2Y-67.6
X257.2Y-126.6
X257.2Y-129.14
X262.2Y-64.101
X262.2Y-69.102
X262.2Y-125.098
X262.2Y-130.099
T5
X32.2Y-76.6
X32.2Y-80.1
X32.2Y-113.6
X32.2Y-117.1
X38.2Y-66.6
X38.2Y-69.1
X38.2Y-71.6
X38.2Y-103.6
X38.2Y-106.1
X38.2Y-108.6
X81.2Y-126.6
X81.7Y-67.6
X84.7Y-126.6
X85.2Y-67.6
X105.2Y-126.6
X105.7Y-67.6
X108.7Y-126.6
X109.2Y-67.6
X129.2Y-126.6
X129.7Y-67.6
X132.7Y-126.6
X133.2Y-67.6
X153.2Y-126.6
X153.7Y-67.6
X156.7Y-126.6
X157.2Y-67.6
X177.2Y-126.6
X177.7Y-67.6
X180.7Y-126.6
X181.2Y-67.6
X201.2Y-126.6
X201.7Y-67.6
X204.7Y-126.6
X205.2Y-67.6
X225.2Y-126.6
X225.7Y-67.6
X228.7Y-126.6
X229.2Y-67.6
X249.2Y-126.6
X249.7Y-67.6
X252.7Y-126.6
X253.2Y-67.6
T6
X90.01Y-85.6
X90.01Y-108.6
X113.01Y-108.6
X114.01Y-85.6
X137.01Y-108.6
X138.01Y-85.6
X161.01Y-108.6
X162.01Y-85.6
X185.01Y-108.6
X186.01Y-85.6
X209.01Y-108.6
X210.01Y-85.6
X234.01Y-85.6
X234.01Y-108.6
X258.01Y-85.6
X258.01Y-108.6
T7
X32.2Y-85.6
X32.2Y-90.6
X32.2Y-122.6
X32.2Y-127.6
T8
X30.Y-97.6
X64.5Y-66.5
X64.5Y-130.5
X82.95Y-131.6
X83.45Y-62.6
X106.95Y-131.6
X107.45Y-62.6
X130.95Y-131.6
X131.45Y-62.6
X154.95Y-131.6
X155.45Y-62.6
X178.95Y-131.6
X179.45Y-62.6
X202.95Y-131.6
X203.45Y-62.6
X226.95Y-131.6
X227.45Y-62.6
X250.95Y-131.6
X251.45Y-62.6
X269.7Y-63.65
X269.7Y-96.85
X269.7Y-130.25
T9
X92.964Y-78.6
X92.964Y-115.6
X116.964Y-78.6
X116.964Y-115.6
X140.964Y-78.6
X140.964Y-115.6
X164.964Y-78.6
X164.964Y-115.6
X188.964Y-78.6
X188.964Y-115.6
X212.964Y-78.6
X212.964Y-115.6
X236.964Y-78.6
X236.964Y-115.6
X260.964Y-78.6
X260.964Y-115.6
T0
M30
